<svg width="512" height="512" xmlns="http://www.w3.org/2000/svg">

 <g>
  <title>background</title>
  <rect fill="none" id="canvas_background" height="402" width="582" y="-1" x="-1"/>
 </g>
 <g>
  <title>Layer 1</title>
  <g id="layer1">
   <g id="g4305">
    <g id="g4345">
     <g font-size="550px" font-style="normal" font-weight="normal" text-anchor="start" fill="#222222" font-family="Ubuntu" id="text2994">
      <g id="g3830">
       <g id="g3838">
        <g id="g3785">
         <path fill="#ffffff" fill-rule="nonzero" stroke-width="60" id="rect3010" d="m181,40.999996c-7.85377,0.00079 -15.6653,3.22779 -21.21875,8.78125c-5.55346,5.55345 -8.78046,13.36498 -8.78125,21.21875l0,370c0.00079,7.8538 3.22779,15.6653 8.78125,21.2188c5.55345,5.5535 13.36498,8.7804 21.21875,8.7812l150,0c7.85377,-0.0008 15.6653,-3.2277 21.21875,-8.7812c5.55346,-5.5535 8.78046,-13.365 8.78125,-21.2188l0,-370c-0.00079,-7.85377 -3.22779,-15.6653 -8.78125,-21.21875c-5.55345,-5.55346 -13.36498,-8.78046 -21.21875,-8.78125l-150,0zm59.28125,20a5.00625,5.00625 0 0 1 0.21875,0a5.0005,5.0005 0 0 1 0.5,0l30,0a5.0005,5.0005 0 1 1 0,10l-30,0a5.0129,5.0129 0 0 1 -0.71875,-10zm-79.28125,30l190,0l0,325l-190,0l0,-325zm95,335c8.28427,0 15,6.71573 15,15c0,8.2843 -6.71573,15 -15,15c-8.28427,0 -15,-6.7157 -15,-15c0,-8.28427 6.71573,-15 15,-15z"/>
        </g>
       </g>
      </g>
      <g id="layer1-4">
       <g id="layer1-5"/>
      </g>
     </g>
    </g>
   </g>
  </g>
 </g>
</svg>